<svg class="icon" viewBox="0 0 1024 1024" xmlns="http://www.w3.org/2000/svg" width="128" height="128"><defs><style/></defs><path d="M498.112 64l-347.84 110.528a31.36 31.36 0 00-21.888 30.016l1.792 434.432.384 4.992c.64 3.008 14.912 75.648 86.08 145.664 54.72 53.952 188.928 124.48 246.144 154.56 8.96 4.736 15.744 8.256 19.584 10.368l6.528 3.584a15.36 15.36 0 0014.272.192l9.536-4.864c33.472-16.384 203.712-101.44 266.944-163.776 71.232-70.08 85.504-142.72 86.08-145.728l2.176-439.424a31.36 31.36 0 00-21.824-30.08L498.112 64zm311.04 571.84c-2.624 10.688-17.92 63.36-69.824 114.432-50.176 49.472-186.048 120.128-235.456 144.96a15.232 15.232 0 01-14.08-.128h-.064c-50.368-26.432-184-96.64-232.768-144.768-52.032-51.2-67.264-103.808-69.952-114.496l-1.6-403.52c0-6.016 3.904-11.392 9.664-13.248l293.632-93.312a31.04 31.04 0 0118.816 0l293.632 93.312c5.76 1.792 9.728 7.168 9.728 13.248l-1.664 403.584zM503.424 273.6a128.256 128.256 0 0190.688 37.12 125.248 125.248 0 01-.512 179.008 127.872 127.872 0 01-58.88 32.512l-.32 53.184 53.12.128a31.744 31.744 0 0132 31.68 32.192 32.192 0 01-32.192 31.616l-53.12-.128-.192 88.384a32.192 32.192 0 01-64.256 0l.768-204.928a125.312 125.312 0 01-58.24-211.776c24.32-23.872 57.088-37.12 91.072-36.864zm77.184 125.376a73.088 73.088 0 00-22.016-52.736 76.48 76.48 0 00-106.88-.192 73.728 73.728 0 00-.256 105.216 74.807 74.807 0 0053.312 21.824c40.576.128 75.712-34.432 75.84-74.24v.128z"/></svg>