<svg class="icon" viewBox="0 0 1024 1024" xmlns="http://www.w3.org/2000/svg" width="128" height="128"><defs><style/></defs><path d="M618.834 282.695c14.056-11.245 33.737-11.245 49.2 1.406 14.055 14.057 14.055 33.736 0 47.794L367.211 631.309c-19.678 18.274-19.678 50.605 0 71.69 18.275 19.68 50.606 19.68 71.691 0l352.832-354.236c49.2-49.2 49.2-130.73 0-179.93s-130.73-49.2-179.93 0l-42.172 42.17-11.245 11.247L233.67 546.966c-80.125 80.126-80.125 208.045 0 288.17 80.125 80.125 208.044 80.125 288.17 0l326.12-323.312c5.623-2.811 8.435-7.028 11.247-11.245 14.056-14.058 33.736-14.058 47.793 0s14.057 33.736 0 47.794l-2.811 2.811c-2.813 1.406-5.623 5.623-8.435 8.434L569.633 882.93c-105.427 105.428-278.328 105.428-383.756 0s-105.427-278.328 0-383.757L564.01 119.634c75.908-75.908 199.61-75.908 276.923 0 75.908 75.908 75.908 199.609 0 276.923L486.696 750.794c-46.388 46.388-122.295 46.388-167.278 0-46.388-46.39-46.388-122.297 0-167.28l299.415-300.819zm0 0"/></svg>