<svg class="icon" viewBox="0 0 1024 1024" xmlns="http://www.w3.org/2000/svg" width="128" height="128"><defs><style/></defs><path d="M224 288h320a32 32 0 010 64H224a32 32 0 010-64zm0 128h192a32 32 0 010 64H224a32 32 0 010-64zm0 128h128a32 32 0 010 64H224a32 32 0 010-64zm544-224h-64V192a32 32 0 00-32-32H160a32 32 0 00-32 32v640a32 32 0 0032 32h352v64H128a64 64 0 01-64-64V160a64 64 0 0164-64h576a64 64 0 0164 64v160zm32 448h96a32 32 0 010 64H640a32 32 0 010-64h96v-67.2A160.064 160.064 0 01768 384a160 160 0 0132 316.8V768zm-32-128a96 96 0 100-192 96 96 0 000 192zM608 864h320a32 32 0 010 64H608a32 32 0 010-64z"/></svg>