<svg class="icon" viewBox="0 0 1024 1024" xmlns="http://www.w3.org/2000/svg" width="128" height="128"><defs><style/></defs><path d="M346.667 922.133h-160c-39.2 0-71.111-31.91-71.111-71.11V152.888c0-39.2 31.91-71.111 71.11-71.111h576c39.2 0 71.112 31.91 71.112 71.11v205.068c0 14.755-11.911 26.666-26.667 26.666s-26.667-11.91-26.667-26.666V152.889c0-9.778-8-17.778-17.777-17.778h-576c-9.778 0-17.778 8-17.778 17.778v698.133c0 9.778 8 17.778 17.778 17.778h160c14.755 0 26.666 11.911 26.666 26.667s-11.91 26.666-26.666 26.666z"/><path d="M682.667 750.311c-73.778 0-133.867-60.089-133.867-133.867s60-133.955 133.867-133.955 133.866 60.089 133.866 133.867S756.444 750.31 682.667 750.31zm0-214.489c-44.445 0-80.534 36.09-80.534 80.534s36.09 80.533 80.534 80.533S763.2 660.8 763.2 616.356s-36.089-80.534-80.533-80.534z"/><path d="M452.444 859.644c-5.955 0-12-1.955-16.977-6.133-11.378-9.333-12.978-26.222-3.645-37.511l127.022-153.956c9.334-11.377 26.223-12.977 37.512-3.644 11.377 9.333 12.977 26.222 3.644 37.511L473.067 849.956c-5.334 6.4-12.89 9.688-20.623 9.688zM579.2 938.311c-3.378 0-6.756-.622-10.133-1.955-13.6-5.6-20.178-21.156-14.578-34.756l76.267-186.044c5.6-13.6 21.155-20.178 34.755-14.578 13.6 5.6 20.178 21.155 14.578 34.755l-76.267 186.045c-4.178 10.31-14.133 16.533-24.622 16.533z"/><path d="M578.933 938.667c-10.4 0-20.266-6.134-24.533-16.267l-32.889-77.778c-5.778-13.6.622-29.244 14.133-34.933 13.6-5.778 29.245.622 34.934 14.133l32.889 77.778c5.777 13.6-.623 29.244-14.134 34.933-3.377 1.423-6.933 2.134-10.4 2.134z"/><path d="M546.044 860.889h-88.622c-14.755 0-26.666-11.911-26.666-26.667s11.91-26.666 26.666-26.666h88.622c14.756 0 26.667 11.91 26.667 26.666S560.8 860.89 546.044 860.89zm354.49-1.245a26.802 26.802 0 01-20.623-9.688L752.978 696c-9.334-11.378-7.734-28.178 3.644-37.511 11.378-9.333 28.178-7.733 37.511 3.644L921.067 816c9.333 11.378 7.733 28.178-3.645 37.511a26.36 26.36 0 01-16.889 6.133zm-126.667 78.667c-10.49 0-20.445-6.222-24.711-16.533l-76.267-186.045c-5.6-13.6.978-29.244 14.578-34.755 13.6-5.6 29.244.978 34.755 14.578L798.49 901.6c5.6 13.6-.978 29.244-14.578 34.756a26.573 26.573 0 01-10.044 1.955z"/><path d="M774.044 938.667c-3.466 0-7.022-.711-10.4-2.134-13.6-5.777-19.91-21.422-14.133-34.933l32.889-77.778c5.778-13.6 21.422-19.91 34.933-14.133 13.6 5.778 19.911 21.422 14.134 34.933l-32.89 77.778c-4.266 10.133-14.133 16.267-24.533 16.267z"/><path d="M895.556 860.889h-88.623c-14.755 0-26.666-11.911-26.666-26.667s11.91-26.666 26.666-26.666h88.623c14.755 0 26.666 11.91 26.666 26.666s-11.91 26.667-26.666 26.667zM667.91 307.11H280.178c-14.756 0-26.667-11.911-26.667-26.667s11.911-26.666 26.667-26.666h387.644c14.756 0 26.667 11.91 26.667 26.666s-11.911 26.667-26.578 26.667zM501.778 473.244h-221.6c-14.756 0-26.667-11.91-26.667-26.666s11.911-26.667 26.667-26.667h221.51c14.756 0 26.668 11.911 26.668 26.667s-11.912 26.666-26.578 26.666zm-66.489 166.134H280.178c-14.756 0-26.667-11.911-26.667-26.667s11.911-26.667 26.667-26.667h155.11c14.756 0 26.668 11.912 26.668 26.667s-11.912 26.667-26.667 26.667z"/></svg>