<svg class="icon" viewBox="0 0 1024 1024" xmlns="http://www.w3.org/2000/svg" width="128" height="128"><defs><style/></defs><path d="M558.308 431.56c-13.768-7.852-29.241-12.175-45.056-12.516-52.566 0-95.119 42.552-95.119 95.118 0 52.565 42.553 95.118 95.119 95.118 52.565 0 95.118-42.553 95.118-95.118 0-15.93-4.324-31.517-12.516-45.056L971.207 93.753a24.274 24.274 0 007.51-17.522c0-6.599-2.731-12.97-7.51-17.522a24.274 24.274 0 00-17.522-7.509c-6.599 0-12.97 2.73-17.521 7.51L558.308 431.56zm0 0"/><path d="M1013.76 531.57c2.39-97.622-20.025-187.734-65.08-265.216-10.013-17.522-35.044-20.025-50.063-5.006l-145.18 145.18c-7.51 7.51-7.51 17.522-5.007 25.031 10.013 30.037 15.019 62.578 15.019 97.621-7.51 127.66-115.143 232.676-245.191 237.682-68.153 1.48-133.917-25.03-182.045-73.159s-74.638-113.891-73.159-182.044c2.39-127.659 107.52-237.682 237.682-245.191 35.044-2.504 67.584 2.503 97.621 15.018 10.013 2.39 17.522 2.39 25.031-5.006l142.678-147.797c15.018-15.019 12.515-40.05-7.51-50.063-77.596-45.056-167.708-67.584-262.712-65.08-272.84 10.012-483.1 227.783-483.1 500.508 0 275.228 225.165 500.508 500.508 500.508 272.725 0 490.496-210.26 500.508-482.986zm0 0"/></svg>