<svg class="icon" viewBox="0 0 1373 1024" xmlns="http://www.w3.org/2000/svg" width="171.625" height="128"><defs><style/></defs><path d="M513.388 252.453c79.86-51.338 182.538-68.451 273.807-34.225l39.93-11.409C661.7 126.959 467.754 195.41 387.893 355.131l39.93-11.409c22.818-34.225 51.34-68.451 85.565-91.269zm159.72-125.494l28.522 5.704-11.408-28.522 17.113-22.817h-28.522l-22.817-17.113-5.704 22.817-28.522 17.113 22.817 11.409 5.705 28.522zM330.85 286.679l-28.521-5.704 11.408 28.522-11.408 28.521 28.521-5.704 22.817 17.113 5.705-28.522 22.817-17.113-28.522-11.408-5.704-28.522zm154.017-148.312l-28.522-11.408v28.521l-17.113 22.817 28.522 5.705 17.113 22.817 11.408-22.817 28.522-11.409-17.113-17.113v-28.52zm342.258-22.817h-28.521l11.408 22.817-11.408 22.817h28.521l22.818 17.113 5.704-28.521 22.817-17.113-22.817-11.409-11.409-28.521z"/><path d="M416.415 109.846c182.538-119.79 422.119-102.678 587.544 39.93l28.522-11.409C895.577 12.872 701.63-32.763 519.092 24.281 342.26 81.324 211.06 235.341 176.834 417.879l28.521-11.41c28.522-119.79 108.382-228.172 211.06-296.623zm524.797 570.43c-79.86 119.792-228.173 171.13-365.076 119.792l-39.93 11.408c165.424 79.86 359.371 11.409 439.231-148.312l-34.225 17.113zm-211.06 205.356l-22.817-5.704 5.704 28.521-11.409 22.818h28.522l17.113 17.113 11.409-28.522 22.817-11.409-22.817-17.112-5.705-22.818zm182.538-22.817l28.522 5.704-5.705-22.817 17.113-22.817-22.817-5.705-17.113-22.817-11.409 22.817-28.521 11.41 17.113 17.112v28.522zm-370.78 45.634l28.521 5.705-11.408-28.522 11.408-22.817H541.91l-22.818-17.113-5.704 22.817-22.817 17.113 22.817 11.409 5.704 28.521z"/><path d="M952.62 914.154c-182.538 119.79-422.119 102.677-587.544-39.93l-28.522 11.408c136.904 125.495 330.85 171.13 507.684 114.086 176.834-57.043 308.033-211.06 342.259-393.597l-28.522 11.409c-28.521 114.086-102.677 228.172-205.355 296.624z"/><path d="M1055.298 725.911h28.521l-11.408-22.817 11.408-28.521-28.521 5.704-17.113-17.113-5.704 22.817-22.818 17.113 22.818 11.409 5.704 28.521zM501.98 497.739l28.521 74.156 79.86-22.817-22.817-74.156zm-108.382 34.226l22.817 74.156 79.86-22.817-22.817-74.156z"/><path d="M1357.626 457.809L1254.95 149.776c-5.705-11.409-11.409-22.817-28.522-28.522-11.408-5.704-22.817-11.408-34.226-5.704L45.635 497.739c-17.113 5.704-28.522 11.409-34.226 28.521-5.705 11.41-5.705 28.522 0 39.93l102.677 308.034c5.705 11.408 11.409 22.817 28.522 28.521 11.408 5.704 28.521 5.704 39.93 5.704L1329.105 526.26c11.408-5.704 22.817-11.408 28.521-28.521 5.705-11.409 5.705-28.522 0-39.93zm-450.64-159.721l5.704 28.522-142.608 45.634-11.408-28.522 148.312-45.634zM621.77 594.712l-5.704-17.113-79.86 28.522 34.225 102.678-28.521 11.408-34.226-102.677-79.86 22.817 5.704 17.113-28.522 11.408-51.339-154.016 108.382-34.226-11.408-57.043 28.521-11.409 17.113 51.34 108.382-34.227L650.292 577.6l-28.522 17.113zm171.13 39.93l-28.522 11.41-45.635-142.609c0 28.522-5.704 51.34-11.408 79.86l-22.817-28.52c11.408-34.227 17.112-74.157 17.112-108.383l-34.225 11.409-11.409-28.522 34.226-11.408-17.113-57.044 28.521-11.408 17.113 57.043 34.226-11.409 11.409 28.522-34.226 11.408 5.704 22.818c22.818 11.408 39.93 22.817 57.043 34.226l-5.704 22.817c-17.113-11.409-28.521-22.817-39.93-34.226l45.634 154.016zm39.93-45.634l-34.226-5.704c11.408-39.93 11.408-74.156 5.704-114.087l28.522-5.704c11.408 45.635 5.704 85.565 0 125.495zm91.269-11.409c-5.705 5.705-11.409 11.409-22.818 17.113l-34.225 11.409-11.41-28.522c11.41 0 17.114-5.704 28.522-5.704 5.705 0 11.41-5.704 5.705-17.113l-39.93-125.495-74.156 22.817-11.41-28.521 176.835-57.043 11.408 28.521-74.156 22.818 39.93 131.199c5.705 11.408 5.705 22.817 5.705 28.521zm74.156-45.634l-22.818 22.817-68.451-102.678 22.817-17.113c22.817 22.818 45.634 57.044 68.452 96.974z"/></svg>