<svg class="icon" viewBox="0 0 1097 1024" xmlns="http://www.w3.org/2000/svg" width="137.125" height="128"><defs><style/></defs><path d="M509.259 616.095h68.853a34.587 34.587 0 000-69.143H509.26a34.587 34.587 0 000 69.143zm0 138.317h68.853a34.587 34.587 0 000-69.142H509.26a34.587 34.587 0 000 69.142zm378.533-622.347H750.15V97.478a34.427 34.427 0 00-68.82 0v34.587H406.042V97.478a34.427 34.427 0 10-68.822 0v34.587H199.58A138.092 138.092 0 0062 270.35v553.204A138.092 138.092 0 00199.58 962h688.213a138.092 138.092 0 00137.643-138.446V270.35a138.092 138.092 0 00-137.643-138.285zm68.821 691.49a68.982 68.982 0 01-68.82 69.142H199.578a68.982 68.982 0 01-68.822-69.143V408.667h825.856v414.887zm0-484.03H130.757V270.35a68.982 68.982 0 0168.822-69.142H337.22v34.587a34.427 34.427 0 1068.822 0v-34.587h275.285v34.587a34.427 34.427 0 1068.821 0v-34.587h137.643a68.982 68.982 0 0168.821 69.142v69.175zM302.86 754.412h68.853a34.587 34.587 0 000-69.142H302.86a34.587 34.587 0 000 69.142zm412.96-138.317h68.757a34.587 34.587 0 000-69.143h-68.821a34.587 34.587 0 000 69.143zm-412.96 0h68.853a34.587 34.587 0 000-69.143H302.86a34.587 34.587 0 000 69.143zm412.96 138.317h68.757a34.587 34.587 0 000-69.142h-68.821a34.587 34.587 0 000 69.142zm0 0"/></svg>