<svg class="icon" viewBox="0 0 1024 1024" xmlns="http://www.w3.org/2000/svg" width="128" height="128"><defs><style/></defs><path d="M489.664 319.552a29.76 29.76 0 00-29.76-29.76H174.976a29.824 29.824 0 000 59.584h284.928a29.824 29.824 0 0029.76-29.824c0 .064 0 .064 0 0zM319.36 496.896a29.824 29.824 0 00-29.76-29.824H174.976a29.76 29.76 0 00-29.76 29.76v.064c0 16.448 13.312 29.76 29.76 29.76H289.6a29.76 29.76 0 0029.76-29.76zM174.976 644.352a29.824 29.824 0 000 59.584h81.344a29.76 29.76 0 0029.76-29.76v-.064a29.76 29.76 0 00-29.76-29.76h-81.344z"/><path d="M420.224 922.432h-259.84c-29.952 0-54.4-28.224-54.4-62.976V165.952c0-34.688 24.384-63.04 54.4-63.04h546.88c29.952 0 54.4 28.288 54.4 63.04v80.512a29.76 29.76 0 1059.584 0v-80.512c0-67.584-51.072-122.624-113.92-122.624H160.384C97.536 43.328 46.4 98.368 46.4 165.952v693.44c0 67.584 51.072 122.56 113.984 122.56h259.904a29.76 29.76 0 10-.064-59.52z"/><path d="M928.768 652.544a6.72 6.72 0 01-3.904-4.928 6.528 6.528 0 011.856-6.016 24.064 24.064 0 018.512-5.76c26.752-12.032 41.088-35.136 38.336-62.08-2.816-27.712-11.072-50.752-25.344-70.4-18.816-25.92-47.488-34.368-76.608-22.144a31.488 31.488 0 01-12.096 2.496c-2.176 0-5.504-2.176-5.696-4.096a22.784 22.784 0 011.408-9.216 63.488 63.488 0 004.096-35.328c-4.672-23.04-20.928-36.288-28.608-42.496-21.504-17.664-46.656-22.976-63.616-25.408a57.088 57.088 0 00-55.232 21.76c-5.056 6.464-9.6 13.12-12.544 19.904-.832 1.92-5.76 7.936-12.416 4.032-2.624-1.536-4.16-5.312-6.848-10.944-12.096-25.344-34.496-38.08-61.568-35.008-29.824 3.52-53.504 12.608-72.32 27.712-21.12 16.896-29.056 39.872-22.976 64.832.704 2.688 1.152 5.12 1.984 8 0 0 .96 3.456 1.024 5.504.064 1.664.448 3.456-.448 5.248-1.024 1.92-3.072 4.16-7.872 4.032a96.832 96.832 0 01-17.088-3.84c-13.376-3.712-39.168-6.08-62.144 20.096-16.064 18.368-22.656 39.36-26.88 57.536-7.488 31.36 4.8 70.08 41.792 82.944.512.32 5.568.32 6.272 6.08.384 3.008-3.968 6.656-11.392 9.792-26.496 11.072-40.448 34.816-38.336 64.96 1.792 25.536 10.688 49.024 26.432 69.632a63.36 63.36 0 0066.752 24.128c7.872-1.856 14.784-3.264 19.008-3.648a32.64 32.64 0 01-2.944 10.688 63.616 63.616 0 00-4.416 33.856c2.56 15.872 10.624 29.184 24.768 40.832 17.984 14.656 40.192 24.384 68.032 29.568 32.64 6.08 62.976-9.792 74.752-39.808.64-1.472 3.008-11.072 9.344-10.624 5.184.384 5.696 4.48 9.024 11.776 11.328 25.344 33.024 40 57.6 40a62.72 62.72 0 008.384-.512 149.12 149.12 0 0064.256-24.384c27.2-18.496 37.12-51.904 24-81.152-.64-1.28-2.112-6.976-.832-9.344 2.432-4.224 11.456-.064 21.44 2.368 25.6 6.4 50.368-1.344 69.248-22.528 18.176-20.672 24.128-44.864 27.008-61.248a66.304 66.304 0 00-11.52-52.608 80.32 80.32 0 00-31.68-24.256zM913.28 719.04c-2.624 14.912-6.656 24.896-12.992 32.064-4.992 5.632-7.168 5.056-9.984 4.352-14.016-3.648-29.44-6.4-46.656-3.392a61.952 61.952 0 00-49.024 54.528 77.44 77.44 0 006.016 37.952c1.728 3.84-1.984 6.656-3.072 7.36-11.712 7.936-24.32 12.672-39.168 14.72a12.992 12.992 0 01-3.328-4.928 73.728 73.728 0 00-37.44-39.104 62.72 62.72 0 00-65.344 7.872 75.584 75.584 0 00-25.344 32.832c-.512 1.408-1.28 4.032-8.384 2.944-17.856-3.392-30.976-8.768-41.152-17.152l-4.288-3.776 1.792-3.328c3.776-9.664 7.552-21.056 6.848-34.944a58.304 58.304 0 00-50.304-55.232 92.544 92.544 0 00-11.072-.64 135.04 135.04 0 00-30.272 4.096c-3.648.896-4.16.512-6.144-2.048a69.696 69.696 0 01-14.4-37.696s-.192-3.008.192-3.968a6.4 6.4 0 011.792-1.92c17.344-10.816 33.28-21.248 41.728-38.4a57.408 57.408 0 00-7.168-63.936c-7.424-8.704-17.792-19.456-32-24.384-6.656-2.176-4.416-13.056-4.416-13.312 3.712-15.744 7.744-24.96 18.368-32.768 9.152 2.56 20.352 5.888 33.664 4.864 34.56-2.176 59.328-25.92 61.504-58.176l1.024-9.856-.64-11.84c-.64-5.76-1.28-11.456-.128-20.8 9.984-8 23.232-12.8 42.624-13.696 3.904 8.192 9.6 18.88 19.52 28.48 15.04 14.4 35.776 20.288 56.768 16.704 22.016-3.904 40.896-17.984 50.56-37.632a43.264 43.264 0 015.568-8.768c16.32 2.304 26.56 6.016 34.496 12.544 1.856 1.6 7.616 6.144 7.872 6.336l-1.728 5.76a78.528 78.528 0 00-4.608 34.176c2.88 31.616 30.016 57.28 61.568 58.368 13.056-.128 25.792-1.856 38.272-6.976l2.944-1.472 2.752 3.584c7.872 10.88 12.544 24.448 11.264 42.88-10.88 4.672-20.224 11.328-27.904 19.456a66.688 66.688 0 00-17.088 57.984c3.968 20.928 17.856 38.72 37.248 47.808a29.12 29.12 0 018.96 5.632c.576.96 1.536 2.176.704 6.848z"/><path d="M690.368 505.792c-78.592 1.088-140.032 62.592-139.776 139.904.128 37.696 14.912 73.088 41.92 99.648 26.368 26.048 61.056 40.32 97.728 40.32h1.536c78.08-.768 141.12-63.744 140.48-140.48a139.008 139.008 0 00-42.112-99.264 139.584 139.584 0 00-99.776-40.128zm.896 220.288c-22.272 1.92-41.6-7.936-56.96-23.168a80.32 80.32 0 01-24.192-57.344c-.128-44.288 35.52-79.552 81.024-80.128h1.088c21.056 0 41.088 8.128 56.256 23.04 15.488 15.104 24.064 35.392 24.32 57.088.32 43.904-36.224 80.064-81.536 80.512z"/></svg>