<svg class="icon" viewBox="0 0 1024 1024" xmlns="http://www.w3.org/2000/svg" width="128" height="128"><defs><style/></defs><path d="M648.64 165.333c-52.053 0-106.667 22.507-136.853 59.52-30.4-37.013-85.12-59.52-136.747-59.52H77.227V848h270.826c102.934-1.813 118.72 13.76 127.04 21.333a45.867 45.867 0 0112.16 21.334h49.067a46.507 46.507 0 0115.573-25.814c12.587-8.533 32-18.986 149.334-17.6H946.56v-681.92zM486.933 816c-33.28-12.48-98.346-17.707-141.76-17.707h-219.2V214.4H375.04c53.333 0 112.213 31.147 112.213 75.84v451.52s-.746 42.347-.32 74.133zm225.494-17.493c-91.84-1.6-143.147.746-175.787 17.493V290.24c0-44.693 59.2-75.84 112.32-75.84h248.747v584z"/><path d="M792 421.333l-74.667-58.666-74.773 58.666v-288H792v288zm-602.773-77.866h234.666v49.066H189.227zm0 138.88h234.666v49.066H189.227zm0 138.88h234.666v49.066H189.227z"/></svg>