<svg class="icon" viewBox="0 0 1024 1024" xmlns="http://www.w3.org/2000/svg" width="128" height="128"><defs><style/></defs><path d="M875.733 342.613c-3.84-15.36-30.72-49.92-42.24-57.6l49.92-38.4c19.2 11.52 42.24 57.6 46.08 76.907l-53.76 19.093zM656.64 911.36l-19.2-61.44c23.04-7.68 49.92-19.2 69.227-30.72l30.72 53.867c-23.04 15.253-50.027 26.773-80.747 38.293zm157.547-92.16l-42.24-46.08c19.2-19.2 38.4-38.4 53.76-57.6l49.92 38.4c-19.094 22.933-38.4 45.973-61.44 65.28zm107.626-146.133l-57.6-26.88c11.52-23.04 19.2-49.92 26.88-72.96l61.44 15.36c-7.68 26.88-19.2 57.6-30.72 84.48zM960.32 496.32h-61.547v-7.68c0-23.04-3.84-46.08-7.68-69.227l61.44-11.52c3.84 26.88 7.68 53.76 7.68 80.747v7.68zM816 52.267v159.68H656.64zm-282.347 148.16c-157.546 0-284.373 126.826-284.373 284.373s126.827 284.373 284.373 284.373c157.547 0 284.374-126.826 284.374-284.373S691.2 200.427 533.653 200.427zM714.347 553.92H487.573V308.053h61.44V492.48H714.24v61.44z"/><path d="M518.293 930.667c-245.973 0-441.92-196.054-441.92-442.027S272.32 46.72 518.293 46.72c84.587 0 169.067 23.04 242.134 73.067l-34.56 53.76c-61.547-38.4-134.507-61.44-207.574-61.44-211.413 0-380.48 169.066-380.48 380.48 0 211.306 169.067 380.48 380.48 380.48v57.6z"/></svg>