<svg class="icon" viewBox="0 0 1024 1024" xmlns="http://www.w3.org/2000/svg" width="128" height="128"><defs><style/></defs><path d="M406.68 598.17a19.149 19.149 0 0119.15 19.15v268.084a19.149 19.149 0 01-19.15 19.15H138.597a19.149 19.149 0 01-19.15-19.15V617.32a19.149 19.149 0 0119.15-19.149H406.68m0-57.447H138.596A76.596 76.596 0 0062 617.32v268.085A76.596 76.596 0 00138.596 962H406.68a76.596 76.596 0 0076.596-76.596V617.32a76.596 76.596 0 00-76.596-76.596zm478.723 57.447a19.149 19.149 0 0119.15 19.15v268.084a19.149 19.149 0 01-19.15 19.15H617.32a19.149 19.149 0 01-19.149-19.15V617.32a19.149 19.149 0 0119.15-19.149h268.084m0-57.447H617.32a76.596 76.596 0 00-76.596 76.596v268.085A76.596 76.596 0 00617.32 962h268.085A76.596 76.596 0 00962 885.404V617.32a76.596 76.596 0 00-76.596-76.596zm0-421.276a19.149 19.149 0 0119.15 19.149V406.68a19.149 19.149 0 01-19.15 19.149H617.32a19.149 19.149 0 01-19.149-19.15V138.597a19.149 19.149 0 0119.15-19.15h268.084m0-57.446H617.32a76.596 76.596 0 00-76.596 76.596V406.68a76.596 76.596 0 0076.596 76.596h268.085A76.596 76.596 0 00962 406.68V138.596A76.596 76.596 0 00885.404 62zm-612.767 57.446a153.191 153.191 0 11-153.191 153.191 153.191 153.191 0 01153.191-153.191m0-57.447A210.638 210.638 0 0062 272.638a210.638 210.638 0 00421.277 0A210.638 210.638 0 00272.638 62z"/></svg>