<svg class="icon" viewBox="0 0 1024 1024" xmlns="http://www.w3.org/2000/svg" width="128" height="128"><defs><style/></defs><path d="M484.364 450.764H375.822a27.136 27.136 0 010-54.272h108.542a27.136 27.136 0 010 54.272zm162.814 142.553H375.822a27.136 27.136 0 010-54.272h271.356a27.136 27.136 0 010 54.272zM565.771 736.05H384.867a27.136 27.136 0 010-54.271H565.77a27.136 27.136 0 110 54.271z"/><path d="M439.138 116.271a72.362 72.362 0 0172.362 72.362 73.447 73.447 0 010 10.312l-9.769 62.05h226.854a18.09 18.09 0 0118.091 18.09V505.94l62.05-9.77a73.447 73.447 0 0110.312 0 72.362 72.362 0 010 144.724 73.447 73.447 0 01-10.312 0l-62.05-9.768v258.512a18.09 18.09 0 01-18.09 18.09H149.69a18.09 18.09 0 01-18.09-18.09V695.166a126.633 126.633 0 000-253.267V279.085a18.09 18.09 0 0118.09-18.09h226.854l-9.769-62.05a73.447 73.447 0 010-10.312 72.362 72.362 0 0172.362-72.362m0-54.271a126.633 126.633 0 00-125.186 144.724h-164.26a72.362 72.362 0 00-72.362 72.361v242.05a72.362 72.362 0 110 94.795v273.708A72.362 72.362 0 00149.691 962h578.894a72.362 72.362 0 0072.362-72.362v-195.92a126.633 126.633 0 100-250.371V279.085a72.362 72.362 0 00-72.362-72.361h-164.26A126.633 126.633 0 00439.137 62z"/></svg>