<svg class="icon" viewBox="0 0 1170 1024" xmlns="http://www.w3.org/2000/svg" width="146.25" height="128"><defs><style/></defs><path d="M962 62H190.571C119.857 62 62 119.857 62 190.571v514.286c0 70.714 57.857 128.572 128.571 128.572h353.572v64.285H287c-19.286 0-32.143 12.857-32.143 32.143S267.714 962 287 962h578.571c19.286 0 32.143-12.857 32.143-32.143s-12.857-32.143-32.143-32.143H608.43V833.43H962c70.714 0 128.571-57.858 128.571-128.572V190.571C1090.571 119.857 1032.714 62 962 62zm64.286 642.857c0 38.572-25.715 64.286-64.286 64.286H190.571c-38.571 0-64.285-25.714-64.285-64.286V190.571c0-38.571 25.714-64.285 64.285-64.285H962c38.571 0 64.286 25.714 64.286 64.285v514.286z"/><path d="M904.143 357.714L801.286 460.571l-167.143-225c-6.429-6.428-19.286-12.857-32.143-12.857-6.429 0-19.286 6.429-25.714 19.286L473.429 505.571 377 364.143c-6.429-6.429-12.857-12.857-25.714-12.857s-19.286 0-25.715 6.428L197 486.286c-6.429 12.857-6.429 38.571 0 51.428s32.143 12.857 45 0l102.857-102.857 109.286 160.714C460.57 602 467 608.43 479.857 608.43h6.429c12.857 0 19.285-6.429 25.714-19.286l102.857-270 160.714 212.143c6.429 6.428 12.858 12.857 25.715 12.857 6.428 0 19.285 0 25.714-6.429l128.571-128.571c12.858-12.857 12.858-32.143 0-45-12.857-12.857-38.571-12.857-51.428-6.429z"/></svg>