<svg class="icon" viewBox="0 0 1024 1024" xmlns="http://www.w3.org/2000/svg" width="128" height="128"><defs><style/></defs><path d="M512 165.58L835.44 335 512 504.42 188.56 335 512 165.58m0-67.1c-7.6 0-15.2 2.1-21.87 6.3L114.96 301.3c-24.96 15.73-24.96 51.66 0 67.39l375.18 196.52c6.67 4.2 14.27 6.3 21.87 6.3s15.2-2.1 21.87-6.3L909.04 368.7c24.96-15.73 24.96-51.66 0-67.39L533.87 104.79A40.941 40.941 0 00512 98.48z"/><path d="M511.57 765.92c-12.81 0-25.62-3.39-36.91-10.17L112.18 566.36c-15.66-8.18-21.73-27.52-13.54-43.18 8.18-15.66 27.52-21.73 43.18-13.54l364.59 190.49 1.09.68c2.5 1.57 5.75 1.55 8.28-.05l1.08-.68 1.13-.59 364.14-191.21c15.65-8.22 34.99-2.19 43.21 13.45 8.22 15.65 2.19 34.99-13.45 43.21L548.7 755.64c-11.36 6.85-24.25 10.28-37.13 10.28z"/><path d="M511.57 960.31c-12.81 0-25.62-3.39-36.91-10.17L112.18 760.75c-15.66-8.18-21.73-27.52-13.54-43.18 8.18-15.66 27.52-21.73 43.18-13.54l364.59 190.49 1.09.68c2.5 1.57 5.75 1.55 8.28-.05l1.08-.68 1.13-.59 364.14-191.21c15.65-8.22 34.99-2.19 43.21 13.45 8.22 15.65 2.19 34.99-13.45 43.21L548.7 950.04c-11.36 6.85-24.25 10.27-37.13 10.27z"/></svg>