<svg class="icon" viewBox="0 0 1024 1024" xmlns="http://www.w3.org/2000/svg" width="128" height="128"><defs><style/></defs><path d="M512 78.893C272.802 78.893 78.893 272.8 78.893 512S272.8 945.107 512 945.107 945.107 751.2 945.107 512 751.197 78.893 512 78.893zM692.87 467.35v62.08H550.8v86.356h142.07v62.48H550.8v124.161h-77.6v-124.16H326.752v-62.48H473.2v-86.356H326.752v-62.08h123.364L299.293 221.57h88.743l105.459 183.7c5.833 12.205 12.468 27.726 19.898 46.56h1.592c5.304-15.123 12.199-31.302 20.694-48.552L641.534 221.57h83.174L571.892 467.35H692.87z"/></svg>