<svg class="icon" viewBox="0 0 1024 1024" xmlns="http://www.w3.org/2000/svg" width="128" height="128"><defs><style/></defs><path d="M902.206 873.972L756.178 716.375c62.144-66.58 100.225-155.898 100.225-253.945 0-205.388-167.1-372.482-372.484-372.482-205.389 0-372.484 167.094-372.484 372.482 0 205.39 167.095 372.484 372.484 372.484 81.928 0 157.762-26.588 219.329-71.59L850.326 922.05c6.963 7.527 16.441 11.334 25.951 11.334a35.269 35.269 0 0024.028-9.424c14.325-13.284 15.19-35.661 1.9-49.988zM182.176 462.43c0-166.38 135.363-301.743 301.743-301.743 166.385 0 301.743 135.363 301.743 301.743 0 166.381-135.358 301.744-301.743 301.744-166.38 0-301.743-135.363-301.743-301.744zm0 0"/></svg>