<svg class="icon" viewBox="0 0 1024 1024" xmlns="http://www.w3.org/2000/svg" width="128" height="128"><defs><style/></defs><path d="M180.505 541.377a30.188 30.188 0 005.638.534c14.121 0 26.703-10.018 29.437-24.401 9.542-50.17 31.763-97.711 64.264-137.487 25.86-31.65 57.881-57.996 93.713-77.3a168.335 168.335 0 003.405 7.89c18.456 39.886 51.342 70.197 92.596 85.35 18.5 6.796 37.684 10.177 56.822 10.176 23.54 0 47.007-5.118 69.006-15.3 39.887-18.456 70.198-51.34 85.352-92.597 15.153-41.254 13.333-85.94-5.124-125.828C637.513 90.076 539.527 54.088 457.19 92.188c-39.887 18.457-70.198 51.342-85.35 92.596-6.783 18.464-10.154 37.613-10.167 56.713-49.436 23.508-93.535 58.027-128.29 100.563-38.805 47.491-65.343 104.285-76.744 164.24-3.096 16.278 7.59 31.982 23.867 35.078zM428.158 205.47c9.629-26.21 28.887-47.103 54.228-58.83 14.17-6.557 29.067-9.66 43.744-9.66 39.502 0 77.381 22.49 95.03 60.631 11.728 25.343 12.884 53.734 3.257 79.946-9.629 26.21-28.886 47.103-54.228 58.83-25.34 11.726-53.734 12.884-79.944 3.255-26.211-9.628-47.104-28.885-58.83-54.226s-12.884-53.734-3.257-79.946zm176.46 669.368c-28.036 8.11-57.207 12.22-86.707 12.22h-.09c-55.653-.016-109.606-14.674-157.118-42.534 31.161-46.194 38.172-107.112 13.128-161.274-18.445-39.89-51.321-70.212-92.572-85.376-41.25-15.165-85.939-13.36-125.83 5.088-39.891 18.445-70.213 51.322-85.378 92.572-15.164 41.25-13.357 85.938 5.089 125.83 27.772 60.063 87.397 95.478 149.595 95.475 23.078-.003 46.522-4.88 68.808-15.186a164.951 164.951 0 0023.694-13.437c59.803 38.489 129.019 58.821 200.569 58.842h.105c35.14 0 69.922-4.907 103.376-14.582 15.917-4.603 25.088-21.238 20.485-37.154s-21.239-25.084-37.155-20.484zM268.36 847.194c-52.321 24.194-114.568 1.31-138.762-51.012-11.718-25.345-12.867-53.736-3.232-79.945 9.635-26.209 28.898-47.096 54.244-58.816 13.972-6.46 28.869-9.708 43.817-9.708 12.166 0 24.368 2.153 36.128 6.476 26.209 9.634 47.096 28.898 58.816 54.243 24.192 52.32 1.309 114.569-51.011 138.762zm678.19-179.78c-12.986-28.065-32.934-50.74-56.845-66.936 1.168-11.581 1.837-25.697 1.837-38.9 0-49.65-9.703-97.85-28.837-143.261-18.475-43.844-44.931-83.27-78.635-117.182-11.68-11.75-30.674-11.81-42.426-.132-11.752 11.68-11.81 30.675-.13 42.427 58.055 58.416 90.027 135.89 90.027 218.147 0 4.633-.094 9.375-.273 14.023-33.58-7.148-69.656-3.908-103.142 11.587-39.887 18.457-70.199 51.342-85.351 92.597-15.153 41.255-13.334 85.941 5.123 125.829 18.457 39.886 51.342 70.197 92.597 85.35 18.5 6.796 37.684 10.177 56.822 10.176 23.539 0 47.006-5.118 69.005-15.3 39.887-18.456 70.199-51.34 85.352-92.597 15.153-41.254 13.333-85.94-5.124-125.828zm-51.197 105.143c-9.628 26.21-28.885 47.103-54.228 58.83-25.34 11.726-53.733 12.884-79.943 3.256-26.213-9.629-47.105-28.886-58.831-54.227s-12.883-53.734-3.256-79.946c9.628-26.21 28.886-47.103 54.228-58.83 14.17-6.557 29.067-9.66 43.744-9.66 39.501 0 77.38 22.49 95.03 60.631 11.727 25.343 12.883 53.734 3.256 79.946z"/></svg>