<svg class="icon" viewBox="0 0 1024 1024" xmlns="http://www.w3.org/2000/svg" width="128" height="128"><defs><style/></defs><path d="M163.373 489.413a87.229 87.229 0 0038.57 9.13c36.091 0 61.386-24.495 75.904-43.733 14.932 19.737 40.651 44.693 77.553 45.174h1.658c37.326 0 65.118-23.553 80.465-41.33a153.562 153.562 0 0024.89 24.033l2.072 1.441c1.659.942 2.902 2.402 4.56 3.363 1.244.942 2.487 1.442 3.769 2.403l1.253.942 2.487 1.441c1.234.48 2.487 1.442 3.768 1.884l1.244.48c1.243.481 2.072.943 3.316 1.442a23.703 23.703 0 002.901.942c2.073.942 4.146 1.442 6.642 2.403a58.608 58.608 0 0017.759 2.44h.424a66.521 66.521 0 0016.957-2.403 1.394 1.394 0 001.244-.48 53.275 53.275 0 006.595-2.402c.829-.48 1.658-.48 2.496-.942 1.234-.481 2.073-.943 3.316-1.442l1.244-.48a13.802 13.802 0 003.768-1.885l2.487-1.441 1.244-.942c1.244-.942 2.487-1.441 3.768-2.402 1.658-.942 2.902-1.885 4.975-3.364l1.243-.942a173.204 173.204 0 0024.89-24.033c15.394 17.24 43.148 41.274 80.474 41.274h1.668c36.496-.48 62.62-25.437 77.553-45.174 14.518 19.709 39.822 43.732 75.905 43.732a88.557 88.557 0 0038.625-9.129c69.716-32.681 70.507-110.536 61.387-147.06-.414-.943-.414-1.885-.829-2.884l-92.956-228.75c-2.902-6.726-8.715-11.05-14.932-11.05H578.969c-.83 0-1.658-.481-2.487-.481-.415 0-1.244.48-1.658.48H447.49c-.415 0-1.253-.48-1.667-.48-.82 0-1.65.48-2.488.48H210.638c-6.227 0-12.445 4.325-14.932 11.051l-92.891 228.75a7.65 7.65 0 00-.829 2.883c-9.129 36.525-8.3 114.38 61.387 147.061zm193.695-28.357h-1.244c-31.937-.48-53.501-31.24-60.972-43.732l39.408-279.218h93.729l-6.595 284.513c-7.885 10.57-31.09 38.447-64.289 38.447zm187.062-10.061l-.829.48c-1.243.942-2.082 1.441-3.316 2.402a22.469 22.469 0 00-2.911 1.885l-.83.48-1.243.48c-.829.481-1.243.481-2.072.943l-.83.48-.828.48c-.415.481-1.244.481-2.073.943l-1.244.48c-1.253.48-2.072.942-3.325 1.442h-.83a40.425 40.425 0 01-9.948 1.441h-1.243a40.962 40.962 0 01-10.363-1.441l-3.769-1.442-2.487-.48a2.968 2.968 0 01-1.658-.942l-.829-.48-.839-.481c-.829-.48-1.234-.48-2.072-.942l-2.902-1.885-2.487-1.441c-1.243-.942-2.073-1.441-3.316-2.402l-1.187-.942c-12.03-9.13-21.565-21.15-26.134-27.397l6.595-284.974h99.56l7.047 288.818a108.614 108.614 0 01-23.637 24.495zm125.252 10.09h-1.206c-40.237 0-66.785-42.772-67.2-42.772l-.414-.48-6.595-279.699h93.738l39.813 283.57c-8.705 13.934-29.026 38.928-58.07 39.409zm222.334-106.693c2.073 10.1 13.68 73.05-42.31 99.485a60.53 60.53 0 01-26.124 6.247c-38.625 0-60.972-47.105-61.387-47.105a26.991 26.991 0 00-2.91-4.324l-37.74-270.57h82.536zm-758.198 0l87.916-216.286h79.636L262.5 414.922c-4.974 9.61-26.548 44.693-60.143 44.693a60.53 60.53 0 01-26.124-6.246c-55.999-25.437-45.221-87.464-42.725-99.005zm775.618 532.001H842.34V559.581c0-10.58-7.461-19.229-16.58-19.229s-16.591 8.649-16.591 19.229v326.784H412.237V559.581c0-10.58-7.471-19.229-16.6-19.229s-16.59 8.62-16.59 19.229v326.784H217.289V559.581c0-10.58-7.461-19.229-16.59-19.229s-16.59 8.649-16.59 19.229v326.784h-63.46c-9.12 0-16.59 8.649-16.59 19.228s7.47 19.219 16.59 19.219h788.477c9.12 0 16.59-8.648 16.59-19.219s-7.47-19.228-16.59-19.228zm0 0"/><path d="M909.126 933.875H120.65c-13.463 0-24.41-12.69-24.41-28.263s10.947-28.263 24.41-28.263h55.64V559.571c0-15.592 10.947-28.263 24.41-28.263s24.41 12.69 24.41 28.263v317.731h146.118v-317.73c0-15.593 10.957-28.264 24.41-28.264s24.42 12.69 24.42 28.263v317.731H801.35v-317.73c0-15.593 10.948-28.264 24.41-28.264s24.41 12.69 24.41 28.263v317.731h58.956c13.453 0 24.41 12.69 24.41 28.263s-10.994 28.31-24.41 28.31zM120.65 895.428c-4.833 0-8.771 4.56-8.771 10.156s3.938 10.165 8.77 10.165h788.478c4.833 0 8.762-4.56 8.762-10.165s-3.929-10.156-8.762-10.156h-74.595V559.571c0-5.596-3.938-10.156-8.77-10.156s-8.734 4.56-8.734 10.156v335.857H404.389V559.571c0-5.596-3.928-10.156-8.77-10.156s-8.762 4.56-8.762 10.156v335.857H209.47V559.571c0-5.596-3.938-10.156-8.771-10.156s-8.771 4.56-8.771 10.156v335.857zm391.959-384.46a66.465 66.465 0 01-20.274-2.713l-3.015-1.046a39.38 39.38 0 01-4.494-1.686 11.371 11.371 0 01-3.485-1.262l-1.122-.443 1.282-9.12-3.712 8.112a20.415 20.415 0 01-2.902-1.46l-6.434-3.929a32.973 32.973 0 01-3.769-2.402 16.449 16.449 0 01-2.459-1.828l-3.853-2.732a171.188 171.188 0 01-21.009-19.181c-15.742 16.326-43.44 37.76-80.313 37.76h-1.65c-28.47-.368-55.103-14.462-77.553-40.916-16.543 19.445-41.857 39.483-75.905 39.483a94.568 94.568 0 01-41.556-9.817C86.32 463.025 84.67 380.338 94.261 340.685a18.39 18.39 0 011.507-5.163l92.881-228.656c3.533-9.61 12.427-16.27 21.998-16.27h232.698a4.494 4.494 0 012.496-.424l127.975.471a8.479 8.479 0 012.675-.47l237.257.47c9.11 0 17.721 6.312 21.932 16.082l93.908 232.047c10.156 40.454 9.016 124.084-65.626 159.082a95.585 95.585 0 01-41.509 9.798c-34.593 0-59.71-19.982-75.97-39.417-16.873 19.784-42.705 40.406-77.393 40.85h-1.762c-35.018 0-62.3-19.417-80.351-37.91a169.342 169.342 0 01-20.651 19.096l-3.005 2.176c-1.489 1.055-2.666 1.884-4.09 2.704a12.878 12.878 0 01-1.883 1.196l-5.596 3.599a18.013 18.013 0 01-4.71 2.383l-8.885 3.609c-1.168.48-2.27.942-3.354 1.28l-.772.943-3.015.32a72.541 72.541 0 01-18.408 2.487zm-24.222-22.958a6.246 6.246 0 011.828.508 28.875 28.875 0 003.363 1.244l3.241 1.14c7.48 2.298 18.4 2.949 29.94.047l.245-.283 2.327-.527a26.86 26.86 0 003.768-1.338l7.773-3.184a15.686 15.686 0 003.118-1.357l3.297-1.988a20.387 20.387 0 013.119-2.157l1.884-1.225c1.008-.584 1.827-1.178 2.826-1.884l1.554-1.093a166.327 166.327 0 0024.636-23.637l5.446-6.312 5.53 6.227c15.686 17.683 41.452 38.767 75.01 38.767h1.667c33.2-.433 57.317-23.128 71.674-42.093l5.964-7.866 5.87 7.96c13.631 18.503 36.835 40.558 69.95 40.558a81.962 81.962 0 0035.545-8.422c64.383-30.204 65.372-102.284 56.903-136.18l-.481-1.743-92.806-228.59c-1.498-3.486-4.607-5.86-7.847-5.86l-368.284-.273a7.452 7.452 0 01-2.101.273H210.647a8.573 8.573 0 00-7.725 5.558L109.89 343.332c0 .085-.066.15-.085.207l-.292 1.338c-8.479 33.915-7.48 105.976 56.809 136.133l.094.047a80.804 80.804 0 0035.545 8.422c32.512 0 56.017-22.092 70.017-40.632l5.878-7.791 5.888 7.772c14.358 18.964 38.476 41.66 71.76 42.093h1.583c36.167 0 62.47-24.24 74.934-38.683l5.7-6.594 5.53 6.83a145.384 145.384 0 0023.552 22.695l1.762 1.215a20.481 20.481 0 012.826 2.082l2.073 1.517a41.697 41.697 0 013.711 2.365l2.912 1.884a10.24 10.24 0 011.884.942l6.387 2.826zm25.437-16.016a50.204 50.204 0 01-13.302-1.649l-5.832-1.837a8.733 8.733 0 01-4.607-2.233l-.942-.518a11.24 11.24 0 01-2.091-.989l-9.468-6.237c-13.99-10.626-24.118-23.335-29.017-30.043l-1.884-2.638 6.924-297.26h114.71l7.348 300.953-1.79 2.6a118.13 118.13 0 01-25.54 26.483l-3.985 2.732a29.591 29.591 0 00-2.902 1.884l-1.724 1.074-4.71-7.64 1.432 9.081-11.795 4.796a45.287 45.287 0 01-10.797 1.488zm14.602-20.406l3.646 6.548-2.685-8.583a14.292 14.292 0 012.054-.942l4.777 7.631-2.638-8.601a18.22 18.22 0 012.901-1.884l3.317-2.412 4.305 7.65-4.22-7.631a100.258 100.258 0 0019.953-20.076l-6.717-276.59H468.79l-6.35 272.642c4.786 6.265 12.831 15.733 22.516 23.082l9.544 6.434a4.842 4.842 0 011.686.735l3.618 1.573 4.898 1.79a37.458 37.458 0 0017.448-.264l3.382-1.196c.82-.367 1.508-.65 2.139-.876l.198-.104.282-.094zm-30.147-.612l1.62 1.281a4.579 4.579 0 00-1.573-1.262zm-2.308-.471l1.884.31a5.596 5.596 0 00-1.837-.263zm173.468 19.614h-1.262c-34.961 0-60.388-28.197-72.438-45.013l-2.525-2.93-.499-4.155-6.858-289.006H694.29l41.405 294.876-1.884 3.043c-7.99 12.803-30.251 42.61-64.289 43.166zm-61.16-55.866c10.494 14.442 31.776 37.73 59.87 37.73l1.243 9.064-.113-9.063c24.683-.405 42.093-21.094 49.931-32.71L680.98 147.17h-79.032zm-251.21 55.866h-1.244c-35.489-.527-58.956-33.491-67.397-47.632l-1.8-3.005 40.99-290.439h108.408L429.1 426.086l-1.818 2.45c-11.588 15.525-36.082 41.583-70.214 41.583zm-53.973-55.018c8.243 12.906 26.85 36.506 52.823 36.892l1.15 9.063v-9.063c26.265 0 46.162-19.624 56.525-32.926l6.34-271.898h-79.032zm520.178 54.057c-32.352 0-54.425-28.263-65.56-47.105l-2.318-4.05a16.016 16.016 0 00-1.884-2.93L751.73 413l-39.569-283.966h96.574l90.574 223.229c7.96 38.692-.189 87.898-46.964 109.98a67.708 67.708 0 01-29.073 6.915zm-56.997-64.957l2.827 5.05c8.761 15.6 27.433 41.79 54.132 41.79a54.105 54.105 0 0023.166-5.576c46.465-21.932 41.01-71.864 37.826-88.105l-85.42-210.191H730.43zm-563.91 64.477a67.699 67.699 0 01-29.101-6.925c-61.538-27.98-50.242-96.197-47.35-109.584l.518-1.658 90.036-221.468h93.795l-41.056 290.533c-2.6 5.04-26.558 49.102-66.842 49.102zm-61.453-111.271c-3.325 16.147-9.194 65.947 38.174 87.52a54.161 54.161 0 0023.28 5.653c29.308 0 48.31-30.995 52.662-38.87l36.855-264.541H226.4z"/><path d="M727.867 584.565c-6.218-7.688-17.005-7.688-23.637 0L561.55 747c-6.595 7.207-6.595 19.7 0 27.387 3.316 3.853 7.46 5.775 11.616 5.775a16.543 16.543 0 0011.606-5.285l142.68-162.437c7.057-8.177 7.057-20.67.415-27.876zm-85.024 248.459a16.562 16.562 0 0011.616-5.285l81.708-92.75c6.595-7.216 6.595-19.708 0-27.396-6.218-7.687-16.958-7.687-23.647 0l-81.293 92.75c-6.595 7.206-6.595 19.699 0 27.396a15.865 15.865 0 0011.616 5.285zm-327.67-163.925v73.04c0 10.58 7.47 19.229 16.59 19.229s16.59-8.649 16.59-19.228v-72.994c0-10.57-7.461-19.219-16.59-19.219s-16.59 8.649-16.59 19.22zm0 0"/></svg>