<svg class="icon" viewBox="0 0 1024 1024" xmlns="http://www.w3.org/2000/svg" width="128" height="128"><defs><style/></defs><path d="M353.536 177.536c118.016-62.464 261.76-49.664 366.976 32.512-14.464 47.488 7.168 98.432 51.456 120.832s98.176 9.6 127.872-30.208c29.568-39.808 26.24-95.104-7.936-131.072s-89.344-42.112-130.56-14.464C632.832 55.808 457.6 42.24 315.264 120.576l1.408 1.28c16 15.872 28.416 34.816 36.864 55.68zM172.16 478.08c0-46.848 9.728-93.056 28.672-135.936h6.4c49.024 0 91.136-34.816 100.352-82.944 9.088-48.128-17.28-96-62.976-113.92s-97.536-.768-123.648 40.832c-25.984 41.6-18.816 95.744 17.152 129.024-43.52 99.584-45.44 212.48-5.376 313.472S251.52 810.368 351.488 853.12c.384-23.552 5.632-46.592 15.36-67.968C248.064 729.088 172.16 609.536 172.16 478.08zm670.336-78.976c42.368 177.536-62.976 356.992-238.848 406.272-22.784-44.032-73.856-65.408-121.216-50.56-47.36 14.848-77.056 61.696-70.4 110.848 6.656 49.152 47.616 86.4 97.152 88.32s93.312-32.128 103.68-80.64a407.936 407.936 0 00250.624-188.16c55.168-93.568 70.656-205.312 43.136-310.4a172.176 172.176 0 01-64.128 24.32zM369.792 481.28a142.208 142.208 0 10284.416 0 142.208 142.208 0 10-284.416 0z"/></svg>