<svg class="icon" viewBox="0 0 1024 1024" xmlns="http://www.w3.org/2000/svg" width="128" height="128"><defs><style/></defs><path d="M840.703 134.95h-32.767a67.803 67.803 0 00-68.023-66.05h-58.66v-1.609A67.803 67.803 0 00613.155.001h-199.02a67.803 67.803 0 00-68.096 67.291l-61.88 1.61a67.803 67.803 0 00-68.095 66.047h-32.768c-40.667 0-73.582 32.549-73.582 72.704v743.643c0 40.082 32.988 72.704 73.582 72.704h657.407c40.595 0 73.582-32.622 73.582-72.704v-743.57c0-40.155-32.987-72.704-73.582-72.704zm-559.761 1.243c0-1.756 1.462-3.146 3.218-3.146h94.354a32.256 32.256 0 0032.402-32.11V67.293c0-1.682 1.463-3.145 3.219-3.145h198.948c1.829 0 3.218 1.463 3.218 3.145v33.646c0 17.774 14.556 32.183 32.476 32.183h91.136c1.755 0 3.145 1.316 3.145 3.072v79.213c0 1.756-1.463 3.145-3.145 3.145H284.16a3.145 3.145 0 01-3.218-3.145v-79.213zm568.392 815.103a8.558 8.558 0 01-8.63 8.558H183.295a8.558 8.558 0 01-8.63-8.558v-743.57c0-4.754 3.876-8.557 8.63-8.557h32.695v16.31c0 37.157 30.573 67.292 68.169 67.292h455.68a67.803 67.803 0 0068.169-67.292v-16.31h32.694c4.755 0 8.631 3.803 8.631 8.557V951.37z"/><path d="M523.117 727.845h-185.49a32.33 32.33 0 00-32.475 32.183c0 17.7 14.555 32.182 32.475 32.182h185.49a32.33 32.33 0 0032.549-32.182 32.33 32.33 0 00-32.549-32.183zm169.692-173.86H337.7a32.33 32.33 0 00-32.475 32.182c0 17.7 14.555 32.11 32.475 32.11h355.255a32.33 32.33 0 0032.475-32.183 32.33 32.33 0 00-32.475-32.183zm0-167.57H337.7a32.33 32.33 0 00-32.475 32.182c0 17.7 14.555 32.11 32.475 32.11h355.255a32.33 32.33 0 0032.475-32.183 32.33 32.33 0 00-32.475-32.11z"/></svg>