<svg class="icon" viewBox="0 0 1024 1024" xmlns="http://www.w3.org/2000/svg" width="128" height="128"><defs><style/></defs><path d="M862.684 913.242H161.316c-36.212 0-64.8-28.778-64.8-65.231V228.317c0-36.453 28.588-65.231 64.8-65.231h95.294c13.341 0 22.871 9.593 22.871 23.023s-9.529 23.023-22.871 23.023h-95.294c-11.435 0-19.059 9.593-19.059 19.186v617.775c0 11.511 9.529 19.186 19.059 19.186h701.367c11.435 0 19.059-9.593 19.059-19.186V228.317c0-11.511-9.529-19.186-19.059-19.186h-74.33c-13.341 0-22.871-9.593-22.871-23.023s9.529-23.023 22.871-23.023h74.33c36.212 0 64.8 28.778 64.8 65.231v617.775c.001 36.454-28.588 67.151-64.799 67.151z"/><path d="M620.636 209.132H424.329c-13.341 0-22.871-9.593-22.871-23.023s9.529-23.023 22.871-23.023H618.73c13.341 0 22.871 9.593 22.871 23.023-.001 13.43-9.53 23.023-20.965 23.023zM340.47 274.363c-19.059 0-34.306-15.348-34.306-32.615V145.82c0-19.186 15.247-32.615 32.4-32.615 19.059 0 32.4 15.348 32.4 32.615v94.009c3.812 19.185-11.435 34.534-30.494 34.534zm364.025 0c-19.059 0-34.306-15.348-34.306-32.615V145.82c0-19.186 15.247-32.615 32.4-32.615 19.059 0 34.306 15.348 34.306 32.615v94.009c1.906 19.185-13.341 34.534-32.4 34.534zM466.259 683.015c-11.435 11.511-28.588 11.511-40.024 0l-129.6-130.462c-11.435-11.511-11.435-28.778 0-40.29 11.435-11.511 28.588-11.511 40.024 0l129.6 130.462c11.435 9.593 11.435 28.779 0 40.29z"/><path d="M430.047 686.852c-11.435-11.511-11.435-28.778 0-40.29l257.295-259.005c11.435-11.511 28.588-11.511 40.024 0 11.435 11.511 11.435 28.778 0 40.29l-255.39 259.005c-11.435 11.512-30.494 11.512-41.929 0z"/></svg>