<svg class="icon" viewBox="0 0 1024 1024" xmlns="http://www.w3.org/2000/svg" width="128" height="128"><defs><style/></defs><path d="M890.56 123.87c5.41 0 9.8 4.4 9.8 9.8v756.08c0 5.41-4.4 9.8-9.8 9.8H133.82c-5.41 0-9.8-4.4-9.8-9.8V133.67c0-5.41 4.4-9.8 9.8-9.8h756.74m0-60H133.82c-38.55 0-69.8 31.25-69.8 69.8v756.08c0 38.55 31.25 69.8 69.8 69.8h756.75c38.55 0 69.8-31.25 69.8-69.8V133.67c0-38.55-31.26-69.8-69.81-69.8z"/><path d="M783.41 346.07H526.26c-17.74 0-32.12 14.38-32.12 32.12 0 17.74 14.38 32.11 32.12 32.11h257.15c17.74 0 32.11-14.38 32.11-32.11 0-17.74-14.37-32.12-32.11-32.12zm0 257.27H526.26c-17.74 0-32.12 14.38-32.12 32.11 0 17.74 14.38 32.12 32.12 32.12h257.15c17.74 0 32.11-14.38 32.11-32.12 0-17.73-14.37-32.11-32.11-32.11zM333.4 523.01c-62.13 0-112.49 50.37-112.49 112.49s50.37 112.49 112.49 112.49 112.49-50.37 112.49-112.49-50.35-112.49-112.49-112.49zm34.14 146.63c-16.28 16.27-41.8 18.78-60.94 5.97-19.14-12.8-26.57-37.33-17.76-58.6 8.82-21.27 31.43-33.35 54.01-28.85s38.84 24.32 38.83 47.34a47.939 47.939 0 01-14.14 34.14zm39.59-378.27L301.25 397.23l-41.57-41.58c-12.54-12.54-32.88-12.54-45.42 0s-12.54 32.88 0 45.42l64.29 64.29a32.118 32.118 0 0022.7 9.41c8.52 0 16.69-3.38 22.71-9.41l128.58-128.57c12.4-12.56 12.34-32.78-.14-45.27-12.49-12.49-32.71-12.56-45.27-.15zm0 0"/></svg>