<svg class="icon" viewBox="0 0 1024 1024" xmlns="http://www.w3.org/2000/svg" width="128" height="128"><defs><style/></defs><path d="M876.144 898.393c-7.125-110.058-59.619-212.462-144.027-280.962l-5.037-3.613-.067.1a29.428 29.428 0 00-15.907-4.706c-19.32 0-30.886 9.677-30.886 25.85 0 9.444 4.208 18.293 11.267 24.291l-.066.166 4.474 3.314c70.787 52.427 110.622 131.93 118.443 236.389l.066 1.16a34.134 34.134 0 00-.1 2.65c0 17.631 13.787 31.948 30.854 31.948 16.438 0 29.893-13.356 30.787-30.19h.597l-.398-6.397zm-99.354-535.28c0-158.874-126.23-288.12-281.36-288.12-155.196 0-281.426 129.246-281.426 288.12a289.38 289.38 0 00100.58 220.482C199.62 647.157 123.332 768.417 114.749 902.27l-.365 5.567-.033.365-.033.53v.795c0 14.98 11.731 27.109 26.147 27.109s26.148-12.13 26.148-27.076l-.033-.795h.563l.431-5.568c9.478-127.225 87.291-238.609 198.477-284.508 33.206 15.94 83.877 32.61 129.313 32.61 42.12 0 83.082-9.61 122.022-28.799l28.533-17.2 23.298-15.84A289.214 289.214 0 00776.79 363.112zM495.43 593.305c-124.01 0-224.856-103.265-224.856-230.192 0-126.86 100.845-230.092 224.856-230.092s224.856 103.231 224.856 230.092c0 126.894-100.846 230.192-224.856 230.192z"/></svg>